<?xml version="1.0" encoding="utf-8"?>
<!-- Generator: Adobe Illustrator 16.0.0, SVG Export Plug-In . SVG Version: 6.00 Build 0)  -->
<!DOCTYPE svg PUBLIC "-//W3C//DTD SVG 1.1 Tiny//EN" "http://www.w3.org/Graphics/SVG/1.1/DTD/svg11-tiny.dtd">
<svg version="1.1" baseProfile="tiny" id="Layer_1" xmlns="http://www.w3.org/2000/svg" xmlns:xlink="http://www.w3.org/1999/xlink"
	 x="0px" y="0px" width="512px" height="512px" viewBox="0 0 512 512" xml:space="preserve">
<g id="solid" xmlns:cc="http://creativecommons.org/ns#" xmlns:dc="http://purl.org/dc/elements/1.1/" xmlns:inkscape="http://www.inkscape.org/namespaces/inkscape" xmlns:rdf="http://www.w3.org/1999/02/22-rdf-syntax-ns#" xmlns:sodipodi="http://sodipodi.sourceforge.net/DTD/sodipodi-0.dtd" xmlns:svg="http://www.w3.org/2000/svg" sodipodi:docname="twitter_bootstrap_logo.svg" inkscape:version="0.48.1 r9760">
	<path id="bg" fill="#563D7C" d="M438.75,377.833c0,33.504-27.413,60.917-60.917,60.917H134.167
		c-33.504,0-60.917-27.413-60.917-60.917V134.167c0-33.504,27.412-60.917,60.917-60.917h243.667
		c33.504,0,60.917,27.412,60.917,60.917L438.75,377.833L438.75,377.833z"/>
	<g id="B">
		<path fill="#FFFFFF" d="M172.568,152.681h103.618c19.111,0,34.461,4.36,45.986,13.139c11.525,8.779,17.319,21.978,17.319,39.715
			c0,10.75-2.628,19.947-7.884,27.592c-5.256,7.644-12.78,13.617-22.574,17.797v0.597c13.139,2.807,23.113,9.018,29.861,18.633
			c6.748,9.675,10.152,21.738,10.152,36.311c0,8.361-1.493,16.186-4.479,23.411c-2.986,7.286-7.645,13.557-14.035,18.812
			c-6.391,5.255-14.512,9.436-24.486,12.542c-9.975,3.105-21.799,4.657-35.535,4.657h-97.944V152.681L172.568,152.681z
			 M209.894,241.965h60.917c8.959,0,16.424-2.508,22.396-7.644c5.973-5.136,8.958-12.422,8.958-21.978
			c0-10.75-2.688-18.335-8.062-22.694c-5.375-4.359-13.14-6.569-23.293-6.569h-60.917V241.965L209.894,241.965z M209.894,335.431
			h65.993c11.348,0,20.187-2.926,26.397-8.839c6.271-5.853,9.437-14.214,9.437-24.964c0-10.571-3.106-18.633-9.437-24.366
			c-6.331-5.734-15.05-8.481-26.397-8.481h-65.993V335.431z"/>
	</g>
</g>
</svg>
