<?xml version="1.0" encoding="utf-8"?>
<!-- Generator: Adobe Illustrator 16.0.0, SVG Export Plug-In . SVG Version: 6.00 Build 0)  -->
<!DOCTYPE svg PUBLIC "-//W3C//DTD SVG 1.1//EN" "http://www.w3.org/Graphics/SVG/1.1/DTD/svg11.dtd">
<svg version="1.1" id="Layer_1" xmlns="http://www.w3.org/2000/svg" xmlns:xlink="http://www.w3.org/1999/xlink" x="0px" y="0px"
	 width="80px" height="80px" viewBox="0 0 80 80" enable-background="new 0 0 80 80" xml:space="preserve">
<g>
	<rect x="17.694" y="26.277" fill="#333333" width="44.306" height="11.664"/>
	<rect x="31.453" y="40.771" fill="#333333" width="30.547" height="27.217"/>
	<rect x="17.694" y="40.771" fill="#333333" width="10.99" height="27.217"/>
</g>
<g enable-background="new    ">
	<path fill="#FFFFFF" d="M48.639,61.025c0.696,0,1.314-0.059,1.852-0.18c0.539-0.118,1.046-0.276,1.524-0.476v-3.304h-2.152
		c-0.317,0-0.568-0.086-0.746-0.255s-0.27-0.382-0.27-0.641v-2.778h7.739v9.188c-0.558,0.408-1.139,0.758-1.742,1.053
		c-0.603,0.295-1.244,0.535-1.925,0.725c-0.684,0.188-1.41,0.329-2.182,0.418c-0.772,0.091-1.603,0.135-2.487,0.135
		c-1.594,0-3.067-0.281-4.422-0.844c-1.354-0.564-2.527-1.339-3.519-2.331c-0.991-0.989-1.768-2.168-2.33-3.526
		c-0.563-1.359-0.844-2.836-0.844-4.429c0-1.623,0.269-3.115,0.807-4.474c0.538-1.361,1.307-2.534,2.308-3.52
		c1.002-0.985,2.211-1.753,3.631-2.3c1.418-0.547,3.005-0.82,4.758-0.82c0.906,0,1.758,0.075,2.554,0.224
		c0.797,0.148,1.532,0.353,2.204,0.613c0.671,0.259,1.286,0.566,1.844,0.925c0.559,0.359,1.056,0.746,1.494,1.167l-1.464,2.224
		c-0.14,0.211-0.307,0.375-0.501,0.494s-0.404,0.179-0.636,0.179c-0.297,0-0.604-0.099-0.926-0.298
		c-0.397-0.237-0.773-0.446-1.126-0.618c-0.354-0.176-0.715-0.317-1.084-0.428c-0.368-0.109-0.757-0.188-1.166-0.239
		c-0.407-0.05-0.864-0.075-1.374-0.075c-0.944,0-1.797,0.168-2.555,0.501c-0.757,0.336-1.399,0.805-1.934,1.412
		c-0.532,0.605-0.943,1.336-1.231,2.189c-0.29,0.851-0.434,1.8-0.434,2.846c0,1.155,0.158,2.181,0.478,3.076
		c0.318,0.897,0.76,1.654,1.321,2.271c0.563,0.617,1.23,1.088,2.004,1.41C46.878,60.865,47.722,61.025,48.639,61.025z"/>
</g>
</svg>
