<?xml version="1.0" encoding="utf-8"?>
<!-- Generator: Adobe Illustrator 16.0.0, SVG Export Plug-In . SVG Version: 6.00 Build 0)  -->
<!DOCTYPE svg PUBLIC "-//W3C//DTD SVG 1.1//EN" "http://www.w3.org/Graphics/SVG/1.1/DTD/svg11.dtd">
<svg version="1.1" id="Layer_1" xmlns="http://www.w3.org/2000/svg" xmlns:xlink="http://www.w3.org/1999/xlink" x="0px" y="0px"
	 width="80px" height="80px" viewBox="0 0 80 80" enable-background="new 0 0 80 80" xml:space="preserve">
<g>
	<path fill="#333333" d="M58,16V4H46v12H34V4H22v12H10v60h60V16H58z M28.684,67.988h-10.99V40.771h10.99V67.988z M62,67.988H31.453
		V40.771H62V67.988z M62,37.941H17.694V26.277H62V37.941z"/>
</g>
<g enable-background="new    ">
	<path fill="#333333" d="M48.497,62.342c0.753,0,1.421-0.063,2.002-0.194c0.582-0.128,1.13-0.299,1.647-0.515v-3.57h-2.325
		c-0.345,0-0.615-0.092-0.808-0.274s-0.291-0.414-0.291-0.693v-3.003h8.364v9.931c-0.603,0.44-1.23,0.819-1.882,1.138
		c-0.651,0.317-1.346,0.579-2.082,0.783c-0.738,0.204-1.523,0.354-2.357,0.452c-0.834,0.097-1.731,0.145-2.688,0.145
		c-1.722,0-3.314-0.304-4.778-0.911c-1.464-0.61-2.731-1.448-3.803-2.521c-1.072-1.069-1.911-2.342-2.519-3.811
		c-0.608-1.469-0.913-3.065-0.913-4.787c0-1.754,0.291-3.366,0.872-4.835c0.581-1.471,1.413-2.738,2.494-3.803
		c1.083-1.065,2.389-1.895,3.924-2.487c1.532-0.591,3.248-0.886,5.142-0.886c0.979,0,1.9,0.081,2.761,0.242
		c0.861,0.16,1.656,0.381,2.382,0.662c0.725,0.28,1.391,0.613,1.993,1c0.604,0.388,1.142,0.807,1.615,1.26l-1.583,2.405
		c-0.15,0.228-0.33,0.404-0.541,0.534c-0.209,0.128-0.438,0.192-0.687,0.192c-0.322,0-0.654-0.106-1.001-0.322
		c-0.43-0.257-0.836-0.481-1.218-0.669c-0.382-0.188-0.772-0.342-1.171-0.461c-0.397-0.118-0.818-0.204-1.26-0.259
		c-0.44-0.054-0.936-0.081-1.485-0.081c-1.021,0-1.942,0.181-2.761,0.541c-0.818,0.363-1.514,0.87-2.091,1.526
		c-0.574,0.655-1.02,1.444-1.331,2.366c-0.312,0.919-0.469,1.945-0.469,3.075c0,1.25,0.172,2.357,0.518,3.326
		c0.344,0.969,0.82,1.787,1.428,2.454c0.608,0.667,1.329,1.176,2.164,1.524C46.595,62.168,47.507,62.342,48.497,62.342z"/>
</g>
</svg>
