<svg id="Layer_1" data-name="Layer 1" xmlns="http://www.w3.org/2000/svg" xmlns:xlink="http://www.w3.org/1999/xlink" viewBox="0 0 28.158 28.16"><defs><style>.cls-1{fill:url(#Super_Soft_Black_Vignette);}.cls-2{fill:url(#Super_Soft_Black_Vignette-2);}.cls-3{fill:url(#Super_Soft_Black_Vignette-3);}</style><radialGradient id="Super_Soft_Black_Vignette" cx="8.259" cy="8.407" r="7.254" gradientUnits="userSpaceOnUse"><stop offset="0.574" stop-color="#130c0e"/><stop offset="0.798" stop-color="#130c0e"/><stop offset="1" stop-color="#130c0e"/></radialGradient><radialGradient id="Super_Soft_Black_Vignette-2" cx="19.899" cy="19.752" r="7.254" xlink:href="#Super_Soft_Black_Vignette"/><radialGradient id="Super_Soft_Black_Vignette-3" cx="14.116" cy="14.122" r="12.134" xlink:href="#Super_Soft_Black_Vignette"/></defs><title>1111</title><path class="cls-1" d="M3.8,15.735V3.8H15.438L14.274,2.639A1.357,1.357,0,0,1,13.815,1.1a0.139,0.139,0,0,0,.008-0.016H1.08V13.823a1.335,1.335,0,0,1,1.241.431Z"/><path class="cls-2" d="M26.82,14.372a1.372,1.372,0,0,1-.983-0.468l-1.482-1.481V24.355H12.72l1.163,1.164a1.353,1.353,0,0,1,.459,1.541,0.1,0.1,0,0,1-.01.02H27.078V14.32A1.071,1.071,0,0,1,26.82,14.372Z"/><path class="cls-3" d="M8.98,24.06l0.635-.637,7.091-7.09,0.029-.045,0.069-.07,6.753-6.753,0.636-.637,0.633,0.637,1.413,1.411-0.122-8.9c-1.379.014-6.777,0.1-8.939,0.132l1.438,1.439,0.637,0.635-0.637.637-7.087,7.086-0.027.043-0.074.073L4.673,18.78l-0.634.635L3.4,18.78,1.992,17.367l0.122,8.9c1.389-.014,6.779-0.1,8.94-0.132L9.615,24.695Z"/></svg>