<svg id="Layer_1" data-name="Layer 1" xmlns="http://www.w3.org/2000/svg" xmlns:xlink="http://www.w3.org/1999/xlink" viewBox="0 0 31.512 27.026"><defs><style>.cls-1{fill:url(#Super_Soft_Black_Vignette);}.cls-2{fill:url(#Super_Soft_Black_Vignette-2);}.cls-3{fill:url(#Super_Soft_Black_Vignette-3);}.cls-4{fill:url(#Super_Soft_Black_Vignette-4);}.cls-5{fill:url(#Super_Soft_Black_Vignette-5);}.cls-6{fill:url(#Super_Soft_Black_Vignette-6);}</style><radialGradient id="Super_Soft_Black_Vignette" cx="13.291" cy="17.998" r="2.705" gradientUnits="userSpaceOnUse"><stop offset="0.574" stop-color="#130c0e"/><stop offset="0.798" stop-color="#130c0e"/><stop offset="1" stop-color="#130c0e"/></radialGradient><radialGradient id="Super_Soft_Black_Vignette-2" cx="16.002" cy="18.261" r="0.006" xlink:href="#Super_Soft_Black_Vignette"/><radialGradient id="Super_Soft_Black_Vignette-3" cx="20.491" cy="9.032" r="6.779" xlink:href="#Super_Soft_Black_Vignette"/><radialGradient id="Super_Soft_Black_Vignette-4" cx="22.392" cy="10.919" r="6.779" xlink:href="#Super_Soft_Black_Vignette"/><radialGradient id="Super_Soft_Black_Vignette-5" cx="28.606" cy="2.85" r="1.721" xlink:href="#Super_Soft_Black_Vignette"/><radialGradient id="Super_Soft_Black_Vignette-6" cx="13.681" cy="13.513" r="12.5" xlink:href="#Super_Soft_Black_Vignette"/></defs><title>1111</title><polygon class="cls-1" points="15.996 18.256 13.016 15.294 13.025 15.306 10.585 20.703 15.996 18.256"/><polygon class="cls-2" points="15.998 18.256 15.996 18.256 16.008 18.267 15.998 18.256"/><polygon class="cls-3" points="26.055 2.278 13.688 14.556 14.927 15.786 27.294 3.511 26.055 2.278"/><polygon class="cls-4" points="15.589 16.445 16.828 17.673 29.196 5.398 27.956 4.165 15.589 16.445"/><path class="cls-5" d="M29.652,1.694A2.2,2.2,0,0,0,26.881,1.6l2.995,2.967A2.132,2.132,0,0,0,29.652,1.694Z"/><polygon class="cls-6" points="23.156 22.989 4.205 22.989 4.205 4.038 21.926 4.038 25.166 1.013 1.181 1.013 1.181 26.013 26.181 26.013 26.181 10.283 23.156 13.397 23.156 22.989"/></svg>