<svg id="Layer_1" data-name="Layer 1" xmlns="http://www.w3.org/2000/svg" xmlns:xlink="http://www.w3.org/1999/xlink" viewBox="0 0 42.409 11.767"><defs><style>.cls-1{fill:url(#Super_Soft_Black_Vignette);}.cls-2{fill:url(#Super_Soft_Black_Vignette-2);}.cls-3{fill:url(#Super_Soft_Black_Vignette-3);}.cls-4{fill:#fff;}</style><radialGradient id="Super_Soft_Black_Vignette" cx="20.911" cy="5.854" r="6.022" gradientTransform="translate(1.928 0.535) scale(0.909 0.909)" gradientUnits="userSpaceOnUse"><stop offset="0.574" stop-color="#130c0e"/><stop offset="0.798" stop-color="#130c0e"/><stop offset="1" stop-color="#130c0e"/></radialGradient><radialGradient id="Super_Soft_Black_Vignette-2" cx="5.422" cy="5.854" r="6.022" xlink:href="#Super_Soft_Black_Vignette"/><radialGradient id="Super_Soft_Black_Vignette-3" cx="36.986" cy="5.854" r="6.023" xlink:href="#Super_Soft_Black_Vignette"/></defs><title>1111</title><rect class="cls-1" x="15.461" y="0.383" width="10.952" height="10.947"/><rect class="cls-2" x="1.382" y="0.383" width="10.95" height="10.947"/><rect class="cls-3" x="30.074" y="0.383" width="10.953" height="10.947"/><path class="cls-4" d="M6.074,4.229H6.056L4.9,4.781,4.662,3.714,6.28,2.966H7.449v6.08H6.074V4.229Z"/><path class="cls-4" d="M18.993,9.046V8.186l0.776-.7c1.337-1.2,1.983-1.88,1.992-2.591A0.857,0.857,0,0,0,20.77,4a2.258,2.258,0,0,0-1.3.5l-0.4-1.01a3.333,3.333,0,0,1,1.983-.626,1.883,1.883,0,0,1,2.133,1.9A3.743,3.743,0,0,1,21.565,7.39L21,7.858V7.876h2.3V9.046H18.993Z"/><path class="cls-4" d="M34.194,7.652a3.22,3.22,0,0,0,1.412.374,0.921,0.921,0,0,0,1.113-.8,1.04,1.04,0,0,0-1.225-.879h-0.58V5.323h0.561a0.922,0.922,0,0,0,1.076-.7,0.728,0.728,0,0,0-.9-0.636,2.7,2.7,0,0,0-1.263.365L34.1,3.321a3.782,3.782,0,0,1,1.88-.458c1.291,0,2.011.683,2.011,1.515a1.449,1.449,0,0,1-1.113,1.413V5.81A1.513,1.513,0,0,1,38.2,7.3c0,1.066-.945,1.852-2.488,1.852A3.708,3.708,0,0,1,33.9,8.728Z"/></svg>