<svg id="Layer_1" data-name="Layer 1" xmlns="http://www.w3.org/2000/svg" xmlns:xlink="http://www.w3.org/1999/xlink" viewBox="0 0 41.735 19.514"><defs><style>.cls-1{fill:none;}.cls-2{clip-path:url(#clip-path);}.cls-3{fill:#130c0e;}.cls-4{fill:url(#Super_Soft_Black_Vignette);}</style><clipPath id="clip-path"><path class="cls-1" d="M30.212,9.048a0.252,0.252,0,0,0-.056-0.09,0.217,0.217,0,0,0-.146-0.064L19.165,5.9a0.236,0.236,0,0,0-.191.069,0.227,0.227,0,0,0-.068.191L22.518,17.2a0.234,0.234,0,0,0,.155.2,0.23,0.23,0,0,0,.248-0.057l0.867-4.372L29.5,18.687a0.237,0.237,0,0,0,.336,0l1.853-1.851a0.24,0.24,0,0,0,0-.337l-5.715-5.714,4.18-1.49A0.24,0.24,0,0,0,30.212,9.048Z"/></clipPath><radialGradient id="Super_Soft_Black_Vignette" cx="20.867" cy="-571.516" r="15.842" gradientTransform="translate(1.619 387.084) scale(0.922 0.666)" gradientUnits="userSpaceOnUse"><stop offset="0.574" stop-color="#130c0e"/><stop offset="0.798" stop-color="#130c0e"/><stop offset="1" stop-color="#130c0e"/></radialGradient></defs><title>1111</title><g class="cls-2"><rect class="cls-3" x="18.898" y="5.895" width="12.886" height="12.885"/><circle class="cls-3" cx="25.333" cy="12.329" r="6.428"/><circle class="cls-3" cx="25.333" cy="12.329" r="5.778"/><circle class="cls-3" cx="25.333" cy="12.329" r="5.128"/><circle class="cls-3" cx="25.333" cy="12.329" r="4.41"/></g><polygon class="cls-4" points="40.116 11.627 33.092 11.627 33.092 9.984 38.474 9.984 38.474 2.399 3.261 2.399 3.261 9.984 15.576 9.984 15.576 11.627 1.619 11.627 1.619 0.757 40.116 0.757 40.116 11.627"/></svg>