<svg id="Layer_1" data-name="Layer 1" xmlns="http://www.w3.org/2000/svg" xmlns:xlink="http://www.w3.org/1999/xlink" viewBox="0 0 36.481 21.344"><defs><style>.cls-1{fill:url(#Super_Soft_Black_Vignette);}.cls-2{fill:url(#Super_Soft_Black_Vignette-2);}</style><radialGradient id="Super_Soft_Black_Vignette" cx="7.539" cy="10.596" r="8.346" gradientTransform="translate(0.912 0.534) scale(0.95 0.95)" gradientUnits="userSpaceOnUse"><stop offset="0.574" stop-color="#130c0e"/><stop offset="0.798" stop-color="#130c0e"/><stop offset="1" stop-color="#130c0e"/></radialGradient><radialGradient id="Super_Soft_Black_Vignette-2" cx="28.941" cy="10.748" r="8.347" xlink:href="#Super_Soft_Black_Vignette"/></defs><title>1111</title><path class="cls-1" d="M13.995,1.2a0.278,0.278,0,0,0-.291.033L2.1,10.385a0.284,0.284,0,0,0,0,.431l11.6,9.153a0.271,0.271,0,0,0,.442-0.215V15.528L8.174,10.816a0.284,0.284,0,0,1,0-.431L14.145,5.67V1.445A0.279,0.279,0,0,0,13.995,1.2Z"/><path class="cls-2" d="M34.378,10.529l-11.6-9.153a0.28,0.28,0,0,0-.293-0.033,0.276,0.276,0,0,0-.148.247V5.816l5.971,4.713a0.284,0.284,0,0,1,0,.431l-5.971,4.712V19.9a0.273,0.273,0,0,0,.148.248,0.281,0.281,0,0,0,.293-0.031l11.6-9.153A0.282,0.282,0,0,0,34.378,10.529Z"/></svg>