<?xml version="1.0" encoding="utf-8"?>
<!-- Generator: Adobe Illustrator 16.0.0, SVG Export Plug-In . SVG Version: 6.00 Build 0)  -->
<!DOCTYPE svg PUBLIC "-//W3C//DTD SVG 1.1 Tiny//EN" "http://www.w3.org/Graphics/SVG/1.1/DTD/svg11-tiny.dtd">
<svg version="1.1" baseProfile="tiny" id="Layer_1" xmlns="http://www.w3.org/2000/svg" xmlns:xlink="http://www.w3.org/1999/xlink"
	 x="0px" y="0px" width="80px" height="80px" viewBox="0 0 80 80" xml:space="preserve">
<g>
	<g>
		<path fill="#545454" d="M42.197,26.503c7.411,0,13.403,6.002,13.403,13.398c0,9.812-11.302,21.202-11.794,21.709
			c-0.403,0.403-1.015,0.702-1.609,0.702c-0.598,0-1.096-0.21-1.596-0.702C40.102,61.104,28.8,49.713,28.8,39.901
			C28.8,32.506,34.801,26.503,42.197,26.503z M65.695,67.41c-0.297,0.494-0.79,0.702-1.401,0.702H20.6
			c-0.5,0-1.097-0.298-1.402-0.702c-0.298-0.506-0.396-0.998-0.096-1.505l5.204-12.39c0.297-0.613,0.798-1.015,1.497-1.015h4.998
			v3.309h-3.901L23,64.907h38.804l-3.907-9.098h-4.397v-3.309h5.398c0.699,0,1.208,0.401,1.505,1.015l5.205,12.39
			C66.1,66.412,65.995,67.007,65.695,67.41z"/>
		<circle fill="#FFFFFF" cx="42.375" cy="39.5" r="5.875"/>
	</g>
</g>
</svg>
