<?xml version="1.0" encoding="utf-8"?>
<!-- Generator: Adobe Illustrator 16.0.0, SVG Export Plug-In . SVG Version: 6.00 Build 0)  -->
<!DOCTYPE svg PUBLIC "-//W3C//DTD SVG 1.1//EN" "http://www.w3.org/Graphics/SVG/1.1/DTD/svg11.dtd">
<svg version="1.1" id="Layer_1" xmlns="http://www.w3.org/2000/svg" xmlns:xlink="http://www.w3.org/1999/xlink" x="0px" y="0px"
	 width="80px" height="80px" viewBox="0 0 80 80" enable-background="new 0 0 80 80" xml:space="preserve">
<g id="Layer_1_1_">
	<g>
		<path fill="#333333" d="M58,16V4H46v12H34V4H22v12H10v60h60V16H58z"/>
		<circle fill="#FFFFFF" cx="40" cy="45.689" r="20.939"/>
		<g enable-background="new    ">
			<path fill="#333333" d="M40.758,54.108c0.84,0,1.584-0.072,2.232-0.217c0.648-0.144,1.26-0.335,1.836-0.575v-3.979h-2.592
				c-0.385,0-0.685-0.102-0.9-0.306s-0.324-0.462-0.324-0.774V44.91h9.324v11.07c-0.672,0.492-1.371,0.915-2.098,1.269
				c-0.726,0.354-1.5,0.646-2.321,0.873c-0.822,0.228-1.698,0.396-2.628,0.504s-1.93,0.162-2.997,0.162
				c-1.92,0-3.696-0.339-5.328-1.017c-1.632-0.679-3.045-1.614-4.239-2.809c-1.194-1.193-2.13-2.61-2.808-4.248
				c-0.678-1.638-1.017-3.417-1.017-5.337c0-1.956,0.324-3.753,0.972-5.391c0.648-1.639,1.575-3.052,2.781-4.239
				c1.206-1.188,2.664-2.112,4.374-2.772c1.71-0.659,3.621-0.989,5.733-0.989c1.092,0,2.118,0.09,3.078,0.27
				s1.846,0.426,2.655,0.738s1.551,0.684,2.223,1.116c0.672,0.432,1.272,0.899,1.8,1.403l-1.764,2.683
				c-0.168,0.252-0.369,0.45-0.604,0.594c-0.233,0.144-0.488,0.216-0.765,0.216c-0.36,0-0.731-0.12-1.116-0.359
				c-0.479-0.288-0.933-0.537-1.358-0.747c-0.427-0.21-0.861-0.381-1.306-0.514c-0.443-0.132-0.912-0.228-1.403-0.288
				c-0.492-0.06-1.044-0.09-1.656-0.09c-1.14,0-2.166,0.201-3.078,0.604s-1.689,0.969-2.331,1.7
				c-0.642,0.732-1.137,1.611-1.485,2.638c-0.348,1.025-0.522,2.169-0.522,3.429c0,1.393,0.192,2.628,0.576,3.708
				c0.384,1.08,0.915,1.992,1.593,2.736c0.678,0.744,1.482,1.311,2.412,1.701C38.637,53.913,39.654,54.108,40.758,54.108z"/>
		</g>
	</g>
</g>
</svg>
