<svg id="Layer_1" data-name="Layer 1" xmlns="http://www.w3.org/2000/svg" xmlns:xlink="http://www.w3.org/1999/xlink" viewBox="0 0 29.922 28.239"><defs><style>.cls-1{fill:url(#Super_Soft_Black_Vignette);}.cls-2,.cls-3,.cls-4,.cls-5{fill-rule:evenodd;}.cls-2{fill:url(#Super_Soft_Black_Vignette-2);}.cls-3{fill:url(#Super_Soft_Black_Vignette-3);}.cls-4{fill:url(#Super_Soft_Black_Vignette-4);}.cls-5{fill:url(#Super_Soft_Black_Vignette-5);}</style><radialGradient id="Super_Soft_Black_Vignette" cx="-419.916" cy="1469.763" r="8.842" gradientTransform="translate(1480.715 437.24) rotate(90)" gradientUnits="userSpaceOnUse"><stop offset="0.574" stop-color="#130c0e"/><stop offset="0.798" stop-color="#130c0e"/><stop offset="1" stop-color="#130c0e"/></radialGradient><radialGradient id="Super_Soft_Black_Vignette-2" cx="-419.916" cy="1454.342" r="2.084" gradientTransform="translate(1347.157 -725.03) rotate(45)" xlink:href="#Super_Soft_Black_Vignette"/><radialGradient id="Super_Soft_Black_Vignette-3" cx="-418.022" cy="1448.734" r="2.371" gradientTransform="translate(1347.157 -725.03) rotate(45)" xlink:href="#Super_Soft_Black_Vignette"/><radialGradient id="Super_Soft_Black_Vignette-4" cx="-426.09" cy="1454.792" r="1.975" gradientTransform="translate(1347.157 -725.03) rotate(45)" xlink:href="#Super_Soft_Black_Vignette"/><radialGradient id="Super_Soft_Black_Vignette-5" cx="-414.699" cy="1454.083" r="1.2" gradientTransform="translate(1347.157 -725.03) rotate(45)" xlink:href="#Super_Soft_Black_Vignette"/></defs><title>1111</title><rect class="cls-1" x="-1.346" y="15.061" width="24.597" height="4.525" transform="translate(-9.042 12.818) rotate(-45)"/><path class="cls-2" d="M24.278,6.273L22,4c-0.71-.71-1.037.113-1.746,0.822s-1.531,1.036-.821,1.746L21.711,8.84c0.71,0.71,1.037-.113,1.746-0.821S24.989,6.983,24.278,6.273Z"/><polygon class="cls-3" points="28.251 3.765 28.794 2.16 27.191 2.705 25.829 1.69 25.851 3.386 24.468 4.367 26.085 4.87 26.588 6.488 27.568 5.103 29.266 5.127 28.251 3.765"/><polygon class="cls-4" points="18.081 2.349 18.534 1.01 17.196 1.464 16.064 0.619 16.082 2.032 14.928 2.849 16.278 3.267 16.696 4.617 17.513 3.463 18.926 3.481 18.081 2.349"/><polygon class="cls-5" points="26.279 9.91 26.555 9.099 25.744 9.375 25.053 8.86 25.066 9.722 24.365 10.215 25.185 10.47 25.438 11.288 25.932 10.588 26.794 10.601 26.279 9.91"/></svg>